<?xml version="1.0" encoding="UTF-8"?>
<svg id="Layer_1" data-name="Layer 1" xmlns="http://www.w3.org/2000/svg" viewBox="0 0 1024 1024">
  <path d="M478.63,301.65c-8.63,12.67-18.97,25.84-30.11,36.38-30.74,29.08-71.37,47.24-113.35,52.14l-76.18,210.83c15.6,1.52,30.15,7.95,44.95,12.56,150.39,46.86,318.05,132.03,471.73,43.62,7.1-4.09,26.83-19.32,33.77-18.18,7.29,1.2,7.7,14.63,6.28,20.24-10.01,39.4-72.95,66.5-108.53,75.5-125.15,31.63-251.98-17.34-369.22-56.21-32.35-10.72-64.15-22.64-97.55-30.18-8.87,17.86-17.2,35.96-30.46,51.14-24.01,27.47-73.49,47.1-106.3,24.35-36.26-25.13-22.46-78.99,5.68-104.48,26.38-23.89,67.25-29.18,101.55-26.42l73-200.54c.59-2.45-5.21-1.21-7.28-1.51-24.73-3.54-87.59-18.19-91.53-48.46-1.64-12.62,9.1-39.2,25.23-30.24,13.01,7.23,20.67,15.92,36.01,21.99,16.93,6.7,36.28,10.98,54.52,10.66,6.23-13.9,11.02-28.43,17.14-42.35,24.13-54.84,81.54-163.79,157-131.97,17.51,7.38,25.36,17.76,29.72,36.28,8.22,34.88-7.05,66.91-26.07,94.86ZM404.4,313.41c21.26-16.39,43.43-43.19,51.31-69.19,1.58-5.22,2.8-17.36,1.04-22.42-4.1-11.83-15.76-6.6-23.78-2.31-25.82,13.82-51.56,57.13-63.69,83.31-1.81,3.9-14.61,33.86-13.29,35.2,17.94-4.24,33.95-13.44,48.4-24.59ZM193,640.01c-19.13-1.33-45.43,2.73-56.83,19.66-5.75,8.54-9.64,24.85,2.99,28.67s30.68-9.55,37.84-18.84c6.73-8.74,11.21-19.63,16-29.49Z"/>
  <path d="M835.35,400.35c-23.44,26.5-43.5,57.98-66.21,85.29-.61.89-1.03,1.87-1.13,2.95-.12,1.17,2.33,13.99,2.91,15.91,2.3,7.59,12.97,28.38,19.1,32.99,16.86,12.66,49.72-12.3,61.01-24.96,8.84-9.92,13.81-21.46,21.14-31.9,2.98-4.24,5.59-4.07,10.2-1.49,5.81,3.25,8.27,12.47,7.96,18.71-1.79,36.34-51.74,80.87-85.55,89.44-36.98,9.38-62.33-16.18-74.28-48.28l-41.53,52.47c-8.43,10.67-21.34,14.25-33.31,7.36-5.46-3.14-12.94-10.89-10.12-17.8,25.81-29.48,49.59-60.59,73.32-91.76-2.84-15.15-4.06-31.5-7.13-46.51-1.19-5.8-6.58-27.79-9.83-31.16-3.42-3.54-5.2-.98-7.87,1.91-7.88,8.56-14.97,35.89-20.01,47.99-11.4,27.33-25.32,60.75-39.85,86.15-14.95,26.16-53.33,76.24-88.49,59.15-16.6-8.07-17.59-29.91-20.18-45.83-10.94,19.26-24.08,37.92-43.19,49.82-28.23,17.57-66.72,17.26-76.6-20.01-7.97-30.04,13.18-90.28,23.01-120.59,6.7-20.66,14.62-47.39,23.09-66.91,6.72-15.52,23.97-19.15,39.45-17.04s15.39,9.11,11.22,21.7c-10.06,30.35-23.59,60.58-33.53,91.56-4.37,13.64-13.79,39.67-12.97,53.02,1.67,27.23,20.98,17.01,33.69,4.11,46.64-47.36,60.47-118.11,83.05-178.37,10.03-10.13,26.86-12.09,39.68-6.16,9.67,4.47,8.79,10.39,6.09,19.86-5.22,18.32-15.65,38.59-21.97,57.03-6.9,20.1-23.66,69.37-23.93,88.5-.34,23.97,11.07,13.26,20.94,2.52,27.71-30.18,44.71-88.38,62.62-126.39,12.67-26.9,39.02-72.81,75.4-51.65,23.3,13.55,21.18,43.34,25.51,66.51.3,1.62-.69,1.75,1.95,1.52-.06-1.54.47-2.91,1.35-4.15,15.29-21.64,52.83-80.35,74.97-90.04,9.7-4.24,22.11,2.5,29.71,8.67,9.27,7.54,11.7,13.68,3.42,23.44-9.64,11.35-23.17,21.23-33.07,32.42Z"/>
</svg>